<?xml version="1.0" encoding="UTF-8"?>
<svg xmlns="http://www.w3.org/2000/svg" xmlns:xlink="http://www.w3.org/1999/xlink" width="22px" height="22px" viewBox="0 0 22 22" version="1.1">
<defs>
<filter id="alpha" filterUnits="objectBoundingBox" x="0%" y="0%" width="100%" height="100%">
  <feColorMatrix type="matrix" in="SourceGraphic" values="0 0 0 0 1 0 0 0 0 1 0 0 0 0 1 0 0 0 1 0"/>
</filter>
<mask id="mask0">
  <g filter="url(#alpha)">
<rect x="0" y="0" width="22" height="22" style="fill:rgb(0%,0%,0%);fill-opacity:0.933333;stroke:none;"/>
  </g>
</mask>
<clipPath id="clip1">
  <rect x="0" y="0" width="22" height="22"/>
</clipPath>
<g id="surface5" clip-path="url(#clip1)">
<path style=" stroke:none;fill-rule:evenodd;fill:rgb(0%,0%,0%);fill-opacity:1;" d="M 2.792969 1.246094 C 8.234375 1.230469 13.679688 1.246094 19.121094 1.289062 C 19.910156 1.503906 20.410156 2.003906 20.625 2.792969 C 20.683594 8.234375 20.683594 13.679688 20.625 19.121094 C 20.410156 19.910156 19.910156 20.410156 19.121094 20.625 C 13.679688 20.683594 8.234375 20.683594 2.792969 20.625 C 2.003906 20.410156 1.503906 19.910156 1.289062 19.121094 C 1.230469 13.679688 1.230469 8.234375 1.289062 2.792969 C 1.519531 2.003906 2.019531 1.488281 2.792969 1.246094 Z M 2.792969 1.246094 "/>
</g>
</defs>
<g id="surface1">
<use xlink:href="#surface5" mask="url(#mask0)"/>
<path style=" stroke:none;fill-rule:evenodd;fill:rgb(87.058824%,87.058824%,87.058824%);fill-opacity:1;" d="M 2.878906 2.019531 C 8.164062 1.933594 13.464844 1.90625 18.777344 1.933594 C 19.050781 2.21875 19.191406 2.53125 19.207031 2.878906 C 18.976562 2.636719 18.6875 2.566406 18.347656 2.664062 C 17.867188 3.105469 17.898438 3.503906 18.433594 3.867188 C 18.769531 3.957031 19.027344 3.855469 19.207031 3.566406 C 19.320312 8.492188 19.320312 13.421875 19.207031 18.347656 C 18.792969 17.871094 18.40625 17.898438 18.046875 18.433594 C 18.050781 19.28125 18.4375 19.511719 19.207031 19.121094 C 19.207031 19.277344 19.164062 19.417969 19.078125 19.550781 C 18.929688 19.683594 18.800781 19.824219 18.691406 19.980469 C 13.40625 20.007812 8.136719 19.980469 2.878906 19.894531 C 2.941406 19.90625 3 19.890625 3.050781 19.851562 C 2.820312 19.621094 2.664062 19.351562 2.578125 19.035156 C 2.519531 13.621094 2.519531 8.207031 2.578125 2.792969 C 2.679688 2.515625 2.839844 2.273438 3.050781 2.0625 C 3 2.023438 2.941406 2.007812 2.878906 2.019531 Z M 2.878906 2.019531 "/>
<path style=" stroke:none;fill-rule:evenodd;fill:rgb(99.215686%,99.215686%,99.215686%);fill-opacity:1;" d="M 2.878906 2.019531 C 2.941406 2.007812 3 2.023438 3.050781 2.0625 C 2.839844 2.273438 2.679688 2.515625 2.578125 2.792969 C 2.519531 8.207031 2.519531 13.621094 2.578125 19.035156 C 2.664062 19.351562 2.820312 19.621094 3.050781 19.851562 C 3 19.890625 2.941406 19.90625 2.878906 19.894531 C 2.402344 19.804688 2.101562 19.519531 1.976562 19.035156 C 1.917969 13.648438 1.917969 8.265625 1.976562 2.878906 C 2.097656 2.398438 2.398438 2.113281 2.878906 2.019531 Z M 2.878906 2.019531 "/>
<path style=" stroke:none;fill-rule:evenodd;fill:rgb(69.411765%,69.411765%,69.411765%);fill-opacity:1;" d="M 18.777344 1.933594 C 19.375 1.996094 19.761719 2.3125 19.9375 2.878906 C 19.996094 8.265625 19.996094 13.648438 19.9375 19.035156 C 19.738281 19.628906 19.320312 19.945312 18.691406 19.980469 C 18.800781 19.824219 18.929688 19.683594 19.078125 19.550781 C 19.164062 19.417969 19.207031 19.277344 19.207031 19.121094 C 19.3125 18.859375 19.3125 18.601562 19.207031 18.347656 C 19.320312 13.421875 19.320312 8.492188 19.207031 3.566406 C 19.320312 3.335938 19.320312 3.109375 19.207031 2.878906 C 19.191406 2.53125 19.050781 2.21875 18.777344 1.933594 Z M 18.777344 1.933594 "/>
<path style=" stroke:none;fill-rule:evenodd;fill:rgb(4.313725%,4.313725%,4.313725%);fill-opacity:1;" d="M 2.964844 2.621094 C 3.617188 2.546875 3.917969 2.832031 3.867188 3.480469 C 3.503906 4.015625 3.105469 4.046875 2.664062 3.566406 C 2.550781 3.167969 2.648438 2.855469 2.964844 2.621094 Z M 2.964844 2.621094 "/>
<path style=" stroke:none;fill-rule:evenodd;fill:rgb(3.921569%,3.921569%,3.921569%);fill-opacity:1;" d="M 19.207031 2.878906 C 19.320312 3.109375 19.320312 3.335938 19.207031 3.566406 C 19.027344 3.855469 18.769531 3.957031 18.433594 3.867188 C 17.898438 3.503906 17.867188 3.105469 18.347656 2.664062 C 18.6875 2.566406 18.976562 2.636719 19.207031 2.878906 Z M 19.207031 2.878906 "/>
<path style=" stroke:none;fill-rule:evenodd;fill:rgb(3.921569%,3.921569%,3.921569%);fill-opacity:1;" d="M 10.097656 3.222656 C 14.453125 3.152344 17.273438 5.1875 18.5625 9.324219 C 19.125 13.199219 17.707031 16.078125 14.308594 17.960938 C 10.074219 19.558594 6.707031 18.484375 4.210938 14.738281 C 2.476562 11.089844 3.066406 7.867188 5.972656 5.070312 C 7.195312 4.101562 8.570312 3.484375 10.097656 3.222656 Z M 10.097656 3.222656 "/>
<path style=" stroke:none;fill-rule:evenodd;fill:rgb(79.607843%,79.607843%,79.607843%);fill-opacity:1;" d="M 13.449219 4.339844 C 16.71875 6.382812 17.9375 9.304688 17.101562 13.105469 C 16.449219 15.042969 15.230469 16.503906 13.449219 17.488281 C 13.378906 17.527344 13.351562 17.585938 13.363281 17.660156 C 10.339844 18.578125 7.75 17.890625 5.585938 15.597656 C 3.695312 13.113281 3.410156 10.449219 4.726562 7.605469 C 6.816406 4.355469 9.726562 3.265625 13.449219 4.339844 Z M 13.449219 4.339844 "/>
<path style=" stroke:none;fill-rule:evenodd;fill:rgb(67.45098%,67.45098%,67.45098%);fill-opacity:1;" d="M 13.449219 4.339844 C 16.648438 5.753906 18.179688 8.214844 18.046875 11.730469 C 17.59375 14.589844 16.03125 16.566406 13.363281 17.660156 C 13.351562 17.585938 13.378906 17.527344 13.449219 17.488281 C 15.230469 16.503906 16.449219 15.042969 17.101562 13.105469 C 17.9375 9.304688 16.71875 6.382812 13.449219 4.339844 Z M 13.449219 4.339844 "/>
<path style=" stroke:none;fill-rule:evenodd;fill:rgb(2.352941%,2.352941%,2.352941%);fill-opacity:1;" d="M 10.699219 5.542969 C 11.722656 5.515625 12.738281 5.542969 13.75 5.628906 C 13.8125 5.839844 13.78125 6.042969 13.664062 6.230469 C 13.054688 7.132812 12.46875 8.050781 11.902344 8.980469 C 12.589844 9.050781 13.277344 9.09375 13.964844 9.109375 C 14.078125 9.179688 14.132812 9.277344 14.136719 9.410156 C 12.242188 11.804688 10.265625 14.140625 8.207031 16.414062 C 7.8125 16.550781 7.652344 16.421875 7.734375 16.027344 C 8.40625 14.460938 9.050781 12.882812 9.667969 11.300781 C 9.066406 11.316406 8.464844 11.300781 7.863281 11.257812 C 7.75 11.1875 7.695312 11.089844 7.691406 10.957031 C 8.671875 9.140625 9.675781 7.335938 10.699219 5.542969 Z M 10.699219 5.542969 "/>
<path style=" stroke:none;fill-rule:evenodd;fill:rgb(85.098039%,85.098039%,85.098039%);fill-opacity:1;" d="M 11.042969 6.144531 C 11.648438 6.117188 12.25 6.144531 12.847656 6.230469 C 12.28125 7.160156 11.695312 8.078125 11.085938 8.980469 C 10.96875 9.167969 10.9375 9.371094 11 9.582031 C 11.695312 9.652344 12.398438 9.695312 13.105469 9.710938 C 11.800781 11.242188 10.5 12.777344 9.195312 14.308594 C 9.136719 14.222656 9.136719 14.136719 9.195312 14.050781 C 9.632812 13.027344 10.050781 11.996094 10.441406 10.957031 C 10.433594 10.875 10.402344 10.804688 10.355469 10.742188 C 9.753906 10.714844 9.152344 10.683594 8.550781 10.65625 C 9.417969 9.167969 10.246094 7.664062 11.042969 6.144531 Z M 11.042969 6.144531 "/>
<path style=" stroke:none;fill-rule:evenodd;fill:rgb(4.313725%,4.313725%,4.313725%);fill-opacity:1;" d="M 3.050781 18.003906 C 3.636719 18.003906 3.910156 18.289062 3.867188 18.863281 C 3.6875 19.261719 3.386719 19.390625 2.964844 19.25 C 2.644531 19.035156 2.546875 18.734375 2.664062 18.347656 C 2.785156 18.210938 2.914062 18.097656 3.050781 18.003906 Z M 3.050781 18.003906 "/>
<path style=" stroke:none;fill-rule:evenodd;fill:rgb(3.921569%,3.921569%,3.921569%);fill-opacity:1;" d="M 19.207031 18.347656 C 19.3125 18.601562 19.3125 18.859375 19.207031 19.121094 C 18.4375 19.511719 18.050781 19.28125 18.046875 18.433594 C 18.40625 17.898438 18.792969 17.871094 19.207031 18.347656 Z M 19.207031 18.347656 "/>
</g>
</svg>
