<?xml version="1.0" encoding="UTF-8"?>
<!DOCTYPE svg PUBLIC "-//W3C//DTD SVG 1.1//EN" "http://www.w3.org/Graphics/SVG/1.1/DTD/svg11.dtd">
<svg xmlns="http://www.w3.org/2000/svg" version="1.1" width="256px" height="256px" style="shape-rendering:geometricPrecision; text-rendering:geometricPrecision; image-rendering:optimizeQuality; fill-rule:evenodd; clip-rule:evenodd" xmlns:xlink="http://www.w3.org/1999/xlink">
<g><path style="opacity:0.934" fill="#000000" d="M 32.5,14.5 C 95.8342,14.3333 159.168,14.5 222.5,15C 231.667,17.5 237.5,23.3333 240,32.5C 240.667,95.8333 240.667,159.167 240,222.5C 237.5,231.667 231.667,237.5 222.5,240C 159.167,240.667 95.8333,240.667 32.5,240C 23.3333,237.5 17.5,231.667 15,222.5C 14.3333,159.167 14.3333,95.8333 15,32.5C 17.6834,23.318 23.5167,17.318 32.5,14.5 Z"/></g>
<g><path style="opacity:1" fill="#dedede" d="M 33.5,23.5 C 94.9977,22.5009 156.664,22.1676 218.5,22.5C 221.667,25.8077 223.334,29.4744 223.5,33.5C 220.796,30.6967 217.463,29.8634 213.5,31C 207.925,36.1146 208.258,40.7813 214.5,45C 218.41,46.0414 221.41,44.8748 223.5,41.5C 224.833,98.8333 224.833,156.167 223.5,213.5C 218.676,207.957 214.176,208.29 210,214.5C 210.056,224.366 214.556,227.033 223.5,222.5C 223.509,224.308 223.009,225.975 222,227.5C 220.293,229.037 218.793,230.704 217.5,232.5C 155.998,232.832 94.6644,232.499 33.5,231.5C 34.2389,231.631 34.9056,231.464 35.5,231C 32.8358,228.331 31.0024,225.164 30,221.5C 29.3333,158.5 29.3333,95.5 30,32.5C 31.198,29.2744 33.0314,26.4411 35.5,24C 34.9056,23.5357 34.2389,23.369 33.5,23.5 Z"/></g>
<g><path style="opacity:1" fill="#fdfdfd" d="M 33.5,23.5 C 34.2389,23.369 34.9056,23.5357 35.5,24C 33.0314,26.4411 31.198,29.2744 30,32.5C 29.3333,95.5 29.3333,158.5 30,221.5C 31.0024,225.164 32.8358,228.331 35.5,231C 34.9056,231.464 34.2389,231.631 33.5,231.5C 27.9528,230.456 24.4528,227.123 23,221.5C 22.3333,158.833 22.3333,96.1667 23,33.5C 24.4266,27.905 27.9266,24.5717 33.5,23.5 Z"/></g>
<g><path style="opacity:1" fill="#b1b1b1" d="M 218.5,22.5 C 225.46,23.2208 229.96,26.8875 232,33.5C 232.667,96.1667 232.667,158.833 232,221.5C 229.663,228.422 224.829,232.089 217.5,232.5C 218.793,230.704 220.293,229.037 222,227.5C 223.009,225.975 223.509,224.308 223.5,222.5C 224.734,219.465 224.734,216.465 223.5,213.5C 224.833,156.167 224.833,98.8333 223.5,41.5C 224.833,38.8333 224.833,36.1667 223.5,33.5C 223.334,29.4744 221.667,25.8077 218.5,22.5 Z"/></g>
<g><path style="opacity:1" fill="#0b0b0b" d="M 34.5,30.5 C 42.1128,29.6141 45.6128,32.9474 45,40.5C 40.7813,46.7419 36.1146,47.0753 31,41.5C 29.6631,36.8721 30.8298,33.2054 34.5,30.5 Z"/></g>
<g><path style="opacity:1" fill="#0a0a0a" d="M 223.5,33.5 C 224.833,36.1667 224.833,38.8333 223.5,41.5C 221.41,44.8748 218.41,46.0414 214.5,45C 208.258,40.7813 207.925,36.1146 213.5,31C 217.463,29.8634 220.796,30.6967 223.5,33.5 Z"/></g>
<g><path style="opacity:1" fill="#0a0a0a" d="M 117.5,37.5 C 168.161,36.6875 200.995,60.3542 216,108.5C 222.545,153.574 206.045,187.074 166.5,209C 117.217,227.57 78.0501,215.07 49,171.5C 28.8278,129.032 35.6612,91.5318 69.5,59C 83.7263,47.7172 99.7263,40.5506 117.5,37.5 Z"/></g>
<g><path style="opacity:1" fill="#cbcbcb" d="M 156.5,50.5 C 194.539,74.2757 208.706,108.276 199,152.5C 191.408,175.04 177.241,192.04 156.5,203.5C 155.702,203.957 155.369,204.624 155.5,205.5C 120.339,216.169 90.1723,208.169 65,181.5C 43.0095,152.583 39.6761,121.583 55,88.5C 79.3368,50.6634 113.17,37.9968 156.5,50.5 Z"/></g>
<g><path style="opacity:1" fill="#acacac" d="M 156.5,50.5 C 193.733,66.9359 211.567,95.6026 210,136.5C 204.709,169.785 186.542,192.785 155.5,205.5C 155.369,204.624 155.702,203.957 156.5,203.5C 177.241,192.04 191.408,175.04 199,152.5C 208.706,108.276 194.539,74.2757 156.5,50.5 Z"/></g>
<g><path style="opacity:1" fill="#060606" d="M 124.5,64.5 C 136.414,64.1785 148.247,64.5118 160,65.5C 160.706,67.9712 160.373,70.3046 159,72.5C 151.917,82.997 145.084,93.6637 138.5,104.5C 146.479,105.332 154.479,105.832 162.5,106C 163.804,106.804 164.471,107.971 164.5,109.5C 142.47,137.374 119.47,164.54 95.5,191C 90.8996,192.583 89.0663,191.083 90,186.5C 97.8026,168.251 105.303,149.918 112.5,131.5C 105.492,131.666 98.4921,131.5 91.5,131C 90.1955,130.196 89.5288,129.029 89.5,127.5C 100.909,106.349 112.575,85.3488 124.5,64.5 Z"/></g>
<g><path style="opacity:1" fill="#d9d9d9" d="M 128.5,71.5 C 135.532,71.1697 142.532,71.503 149.5,72.5C 142.916,83.3363 136.083,94.003 129,104.5C 127.627,106.695 127.294,109.029 128,111.5C 136.088,112.317 144.255,112.817 152.5,113C 137.333,130.833 122.167,148.667 107,166.5C 106.333,165.5 106.333,164.5 107,163.5C 112.113,151.608 116.946,139.608 121.5,127.5C 121.392,126.558 121.059,125.725 120.5,125C 113.5,124.667 106.5,124.333 99.5,124C 109.572,106.687 119.238,89.1869 128.5,71.5 Z"/></g>
<g><path style="opacity:1" fill="#0b0b0b" d="M 35.5,209.5 C 42.319,209.483 45.4856,212.817 45,219.5C 42.9276,224.143 39.4276,225.643 34.5,224C 30.7885,221.487 29.6218,217.987 31,213.5C 32.3968,211.93 33.8968,210.596 35.5,209.5 Z"/></g>
<g><path style="opacity:1" fill="#0a0a0a" d="M 223.5,213.5 C 224.734,216.465 224.734,219.465 223.5,222.5C 214.556,227.033 210.056,224.366 210,214.5C 214.176,208.29 218.676,207.957 223.5,213.5 Z"/></g>
</svg>
